<svg xmlns="http://www.w3.org/2000/svg" viewBox="0 0 58 58"><path fill="#A98258" d="M48 0H10L0 16v42h58V16"/><path fill="#DAAE86" d="M10 0L0 16h58L48 0"/><path fill="#D8B18B" d="M33 54l-4-4-4 4-2-2v6h12v-6"/><path fill="#E8D5B2" d="M20 30h18v16H20z"/><g fill="#D4C3A5"><path d="M30 41h-6c-.552 0-1 .447-1 1s.448 1 1 1h6c.552 0 1-.447 1-1s-.448-1-1-1zM34 41h-1c-.552 0-1 .447-1 1s.448 1 1 1h1c.552 0 1-.447 1-1s-.448-1-1-1zM28 35h6c.552 0 1-.447 1-1s-.448-1-1-1h-6c-.552 0-1 .447-1 1s.448 1 1 1zM34 37h-2c-.552 0-1 .447-1 1s.448 1 1 1h2c.552 0 1-.447 1-1s-.448-1-1-1zM24 39h2c.552 0 1-.447 1-1s-.448-1-1-1h-2c-.552 0-1 .447-1 1s.448 1 1 1zM24 35h1c.552 0 1-.447 1-1s-.448-1-1-1h-1c-.552 0-1 .447-1 1s.448 1 1 1zM28.29 37.29c-.18.19-.29.44-.29.71 0 .27.11.52.29.71.19.18.45.29.71.29.26 0 .52-.11.71-.29.18-.19.29-.45.29-.71s-.11-.52-.29-.71c-.38-.37-1.05-.37-1.42 0z"/></g><path fill="#F4D5BD" d="M23 0h12v16H23z"/><path fill="#D8B18B" d="M25 21l4 4 4-4 2 2v-7H23v7"/></svg>