<svg xmlns="http://www.w3.org/2000/svg" viewBox="0 0 511.999 511.999"><path d="M429.576 429.813l-92.173-159.647v-150.99h11.287c9.858 0 17.85-7.99 17.85-17.85s-7.99-17.85-17.85-17.85H163.306c-9.858 0-17.85 7.99-17.85 17.85s7.99 17.85 17.85 17.85h11.287v150.99L82.42 429.81C61.333 466.335 87.655 512 129.87 512h252.256c42.173 0 68.557-45.628 47.45-82.187zm-221.673-145.94c1.566-2.712 2.392-5.79 2.392-8.924V119.176H301.7v155.77c0 3.134.826 6.213 2.393 8.926l10.044 17.396H197.86l10.043-17.396zM382.126 476.3H129.87c-14.69 0-23.89-15.89-16.532-28.634l63.907-110.69h157.503l63.907 110.69c7.345 12.718-1.81 28.634-16.53 28.634z"/><circle cx="185.114" cy="415.748" r="15.471"/><circle cx="255.994" cy="415.748" r="30.025"/><circle cx="326.886" cy="415.748" r="15.471"/><circle cx="213.283" cy="30.025" r="15.471"/><circle cx="284.163" cy="30.025" r="30.025"/></svg>