<svg xmlns="http://www.w3.org/2000/svg" viewBox="0 0 434.147 434.147"><path d="M27.336 14.372l28.177 360.474c.423 5.413 4.087 10.03 9.263 11.67l148.268 47.008c2.622.83 5.437.83 8.06 0l148.267-47.008c5.177-1.64 8.84-6.257 9.264-11.67L406.81 14.372C407.418 6.622 401.293 0 393.52 0H40.63c-7.774 0-13.9 6.622-13.294 14.372zm307.217 111.843H150.918l5.542 51.105h174.1l-11.39 145.693-102.096 32.37-102.096-32.37-5.95-76.116h53.588v37.336l55.89 15 55.556-15 4.31-59.503H107.295L95.937 79.42H338.21l-3.657 46.795z" fill="#FC490B"/></svg>