<svg xmlns="http://www.w3.org/2000/svg" viewBox="0 0 512 512"><path fill="#BDC3C7" d="M406.07 105.93H300.137V0"/><path fill="#5889C4" d="M44.138 406.07H512V194.206H44.138"/><path d="M114.76 379.586c-24.34 0-44.14-19.8-44.14-44.138 0-4.873 3.956-8.828 8.83-8.828 4.872 0 8.827 3.955 8.827 8.828 0 14.6 11.882 26.483 26.483 26.483s26.483-11.88 26.483-26.482-11.882-26.483-26.483-26.483c-24.338 0-44.138-19.8-44.138-44.138 0-24.338 19.8-44.138 44.138-44.138s44.138 19.8 44.138 44.137c0 4.873-3.955 8.828-8.828 8.828-4.873 0-8.828-3.955-8.828-8.828 0-14.6-11.882-26.483-26.483-26.483s-26.484 11.882-26.484 26.483c0 14.6 11.882 26.483 26.483 26.483 24.337 0 44.137 19.8 44.137 44.138s-19.8 44.138-44.138 44.138" fill="#FFF"/><path fill="#ECF0F1" d="M44.138 406.07V194.206h361.93V105.93H300.14V0H0v512h406.07V406.07"/><g fill="#FFF"><path d="M335.448 379.586c-24.338 0-44.138-19.8-44.138-44.138 0-4.873 3.955-8.828 8.828-8.828 4.873 0 8.828 3.955 8.828 8.828 0 14.6 11.882 26.483 26.483 26.483s26.482-11.88 26.482-26.482-11.882-26.483-26.483-26.483c-24.34 0-44.14-19.8-44.14-44.138 0-24.338 19.8-44.138 44.14-44.138s44.137 19.8 44.137 44.137c0 4.873-3.955 8.828-8.828 8.828-4.874 0-8.83-3.955-8.83-8.828 0-14.6-11.88-26.483-26.482-26.483s-26.483 11.882-26.483 26.483c0 14.6 11.882 26.483 26.483 26.483 24.338 0 44.138 19.8 44.138 44.138s-19.8 44.138-44.138 44.138M441.38 379.586c-24.34 0-44.14-19.8-44.14-44.138 0-4.873 3.956-8.828 8.83-8.828 4.88 0 8.827 3.955 8.827 8.828 0 14.6 11.882 26.483 26.483 26.483s26.483-11.88 26.483-26.482-11.882-26.483-26.483-26.483c-24.338 0-44.138-19.8-44.138-44.138 0-24.338 19.8-44.138 44.138-44.138s44.138 19.8 44.138 44.137c0 4.873-3.946 8.828-8.828 8.828s-8.828-3.955-8.828-8.828c0-14.6-11.882-26.483-26.483-26.483s-26.484 11.882-26.484 26.483c0 14.6 11.882 26.483 26.483 26.483 24.337 0 44.137 19.8 44.137 44.138s-19.8 44.138-44.138 44.138M273.655 379.59c-3.575 0-6.938-2.188-8.27-5.728l-43.936-117.177-36.468 116.71c-1.465 4.652-6.453 7.212-11.06 5.79-4.653-1.456-7.248-6.4-5.8-11.06l44.137-141.24c1.13-3.603 4.413-6.083 8.182-6.19 3.778-.167 7.186 2.2 8.52 5.72l52.965 141.242c1.704 4.573-.61 9.657-5.173 11.37-1.024.378-2.066.564-3.1.564"/><path d="M253.793 326.62h-60.69c-4.873 0-8.828-3.954-8.828-8.827 0-4.873 3.955-8.828 8.828-8.828h60.69c4.873 0 8.828 3.955 8.828 8.828 0 4.873-3.954 8.828-8.827 8.828"/></g></svg>