<svg xmlns="http://www.w3.org/2000/svg" viewBox="0 0 511.999 511.999"><path d="M415.98 35.884L371.847 5.33C363.01 15 348.172 16.9 337.102 9.237l-221.156 319.44c11.07 7.664 14.515 22.222 8.57 33.896l44.135 30.555c8.836-9.674 23.675-11.574 34.745-3.91 11.07 7.664 14.515 22.222 8.57 33.896L256.1 453.67c8.835-9.672 23.674-11.572 34.744-3.908L512 130.322c-11.07-7.665-14.515-22.223-8.57-33.897L459.294 65.87c-8.835 9.673-23.674 11.573-34.744 3.91-11.068-7.664-14.513-22.223-8.57-33.896z" fill="#F2CC7B"/><path fill="#F25F60" d="M433.917 189.73L282.94 407.815 158.003 321.32l150.976-218.083z"/><path fill="#F2F2F2" d="M256.373 228.127l37.038 11.11 22.012-31.794.88 38.658 37.04 11.11-36.496 12.784.88 38.658-23.435-30.758-36.493 12.784 22.01-31.793"/><path d="M246.757 447.205L330.432 90.62l-26.15-6.136 2.222-23.093-4.738-1.11-185.82 268.398c11.07 7.664 14.515 22.222 8.57 33.896l44.136 30.555c8.834-9.674 23.674-11.574 34.744-3.91s14.515 22.222 8.57 33.896l34.79 24.09z" opacity=".1"/><path d="M171.916 59.353l-52.26-12.263c-4.676 12.236-17.788 19.44-30.895 16.365L0 441.707c13.107 3.076 21.647 15.36 20.393 28.4l52.26 12.264c4.676-12.235 17.788-19.44 30.895-16.364 13.107 3.076 21.647 15.36 20.393 28.4l52.26 12.264c4.677-12.236 17.79-19.44 30.896-16.365l88.76-378.25c-13.108-3.076-21.648-15.36-20.394-28.402L223.204 71.39c-4.677 12.236-17.79 19.44-30.896 16.365-13.108-3.078-21.646-15.36-20.392-28.402z" fill="#FFD782"/><g fill="#FF6465"><path d="M92.64 131.118c-.65 0-1.315-.075-1.978-.23l-16.802-3.943c-4.64-1.088-7.52-5.732-6.43-10.372 1.09-4.64 5.733-7.52 10.373-6.43l16.802 3.944c4.64 1.088 7.52 5.732 6.43 10.372-.932 3.974-4.48 6.658-8.394 6.658zM231.436 163.686c-.652 0-1.315-.075-1.98-.23l-34.698-8.143c-4.64-1.088-7.52-5.732-6.43-10.372 1.09-4.638 5.73-7.518 10.373-6.428l34.7 8.143c4.64 1.088 7.52 5.732 6.43 10.372-.932 3.976-4.478 6.66-8.394 6.66zm-69.397-16.284c-.653 0-1.316-.075-1.98-.23l-34.7-8.143c-4.64-1.09-7.518-5.733-6.428-10.373 1.088-4.64 5.73-7.52 10.372-6.43l34.7 8.144c4.64 1.09 7.518 5.733 6.428 10.373-.932 3.976-4.477 6.66-8.393 6.66zM282.937 175.772c-.652 0-1.316-.075-1.98-.23l-16.8-3.943c-4.64-1.09-7.52-5.733-6.43-10.373 1.088-4.64 5.733-7.52 10.372-6.43l16.8 3.944c4.64 1.09 7.52 5.733 6.43 10.373-.932 3.976-4.477 6.66-8.393 6.66zM245.01 195.95L184.4 454.176 36.46 419.453l60.613-258.228z"/></g><path fill="#FFF" d="M93.83 296.702l38.532-3.232 8.835-37.645 14.98 35.648 38.533-3.232-29.274 25.265 14.98 35.65-33.073-20.036-29.274 25.263 8.833-37.646"/><g fill="#F25F60"><path d="M319.075 74.214c-1.695 0-3.406-.497-4.904-1.535l-14.19-9.825c-3.918-2.713-4.895-8.09-2.182-12.007 2.713-3.92 8.09-4.896 12.007-2.183l14.19 9.824c3.92 2.712 4.896 8.088 2.183 12.006-1.676 2.42-4.367 3.718-7.103 3.718zM436.29 155.365c-1.695 0-3.406-.498-4.904-1.535l-29.304-20.288c-3.92-2.713-4.896-8.09-2.183-12.006 2.712-3.92 8.088-4.896 12.006-2.183l29.304 20.288c3.92 2.714 4.896 8.09 2.183 12.007-1.676 2.42-4.367 3.718-7.103 3.718zm-58.607-40.576c-1.695 0-3.406-.5-4.904-1.536l-29.305-20.288c-3.92-2.713-4.896-8.09-2.183-12.006 2.713-3.92 8.09-4.896 12.007-2.183l29.303 20.288c3.92 2.713 4.896 8.09 2.183 12.007-1.676 2.42-4.367 3.717-7.103 3.717zM479.783 185.477c-1.695 0-3.406-.498-4.904-1.535l-14.19-9.824c-3.92-2.713-4.897-8.09-2.184-12.007 2.713-3.918 8.09-4.895 12.007-2.182l14.19 9.824c3.92 2.713 4.896 8.09 2.183 12.007-1.675 2.418-4.367 3.717-7.103 3.717z"/></g></svg>